<svg width="17" height="16" viewBox="0 0 17 16" fill="none" xmlns="http://www.w3.org/2000/svg">
<g clip-path="url(#clip0_2311_428)">
<g clip-path="url(#clip1_2311_428)">
<path d="M15.0656 0.67832C14.3813 -0.0060547 13.275 -0.0060547 12.5906 0.67832L11.65 1.61582L14.7094 4.6752L15.65 3.73457C16.3344 3.0502 16.3344 1.94395 15.65 1.25957L15.0656 0.67832ZM5.71562 7.55332C5.525 7.74395 5.37812 7.97832 5.29375 8.2377L4.36875 11.0127C4.27813 11.2814 4.35 11.5783 4.55 11.7814C4.75 11.9846 5.04688 12.0533 5.31875 11.9627L8.09375 11.0377C8.35 10.9533 8.58437 10.8064 8.77812 10.6158L14.0063 5.38457L10.9438 2.32207L5.71562 7.55332ZM3.32812 2.0002C1.67188 2.0002 0.328125 3.34395 0.328125 5.0002V13.0002C0.328125 14.6564 1.67188 16.0002 3.32812 16.0002H11.3281C12.9844 16.0002 14.3281 14.6564 14.3281 13.0002V10.0002C14.3281 9.44707 13.8813 9.0002 13.3281 9.0002C12.775 9.0002 12.3281 9.44707 12.3281 10.0002V13.0002C12.3281 13.5533 11.8813 14.0002 11.3281 14.0002H3.32812C2.775 14.0002 2.32812 13.5533 2.32812 13.0002V5.0002C2.32812 4.44707 2.775 4.0002 3.32812 4.0002H6.32812C6.88125 4.0002 7.32812 3.55332 7.32812 3.0002C7.32812 2.44707 6.88125 2.0002 6.32812 2.0002H3.32812Z" fill="black"/>
</g>
</g>
<defs>
<clipPath id="clip0_2311_428">
<rect width="16" height="16" fill="white" transform="translate(0.328125)"/>
</clipPath>
<clipPath id="clip1_2311_428">
<path d="M0.328125 0H16.3281V16H0.328125V0Z" fill="white"/>
</clipPath>
</defs>
</svg>
