<svg width="30" height="30" viewBox="0 0 30 30" fill="none" xmlns="http://www.w3.org/2000/svg">
<g clip-path="url(#clip0_66_52)">
<path d="M30 30H0V0H30V30Z" stroke="#1F2228"/>
<path d="M0 5.625C0 3.55664 1.68164 1.875 3.75 1.875H26.25C28.3184 1.875 30 3.55664 30 5.625V24.375C30 26.4434 28.3184 28.125 26.25 28.125H3.75C1.68164 28.125 0 26.4434 0 24.375V5.625ZM2.8125 21.5625V23.4375C2.8125 23.9531 3.23438 24.375 3.75 24.375H5.625C6.14062 24.375 6.5625 23.9531 6.5625 23.4375V21.5625C6.5625 21.0469 6.14062 20.625 5.625 20.625H3.75C3.23438 20.625 2.8125 21.0469 2.8125 21.5625ZM24.375 20.625C23.8594 20.625 23.4375 21.0469 23.4375 21.5625V23.4375C23.4375 23.9531 23.8594 24.375 24.375 24.375H26.25C26.7656 24.375 27.1875 23.9531 27.1875 23.4375V21.5625C27.1875 21.0469 26.7656 20.625 26.25 20.625H24.375ZM2.8125 14.0625V15.9375C2.8125 16.4531 3.23438 16.875 3.75 16.875H5.625C6.14062 16.875 6.5625 16.4531 6.5625 15.9375V14.0625C6.5625 13.5469 6.14062 13.125 5.625 13.125H3.75C3.23438 13.125 2.8125 13.5469 2.8125 14.0625ZM24.375 13.125C23.8594 13.125 23.4375 13.5469 23.4375 14.0625V15.9375C23.4375 16.4531 23.8594 16.875 24.375 16.875H26.25C26.7656 16.875 27.1875 16.4531 27.1875 15.9375V14.0625C27.1875 13.5469 26.7656 13.125 26.25 13.125H24.375ZM2.8125 6.5625V8.4375C2.8125 8.95312 3.23438 9.375 3.75 9.375H5.625C6.14062 9.375 6.5625 8.95312 6.5625 8.4375V6.5625C6.5625 6.04688 6.14062 5.625 5.625 5.625H3.75C3.23438 5.625 2.8125 6.04688 2.8125 6.5625ZM24.375 5.625C23.8594 5.625 23.4375 6.04688 23.4375 6.5625V8.4375C23.4375 8.95312 23.8594 9.375 24.375 9.375H26.25C26.7656 9.375 27.1875 8.95312 27.1875 8.4375V6.5625C27.1875 6.04688 26.7656 5.625 26.25 5.625H24.375ZM9.375 7.5V11.25C9.375 12.2871 10.2129 13.125 11.25 13.125H18.75C19.7871 13.125 20.625 12.2871 20.625 11.25V7.5C20.625 6.46289 19.7871 5.625 18.75 5.625H11.25C10.2129 5.625 9.375 6.46289 9.375 7.5ZM11.25 16.875C10.2129 16.875 9.375 17.7129 9.375 18.75V22.5C9.375 23.5371 10.2129 24.375 11.25 24.375H18.75C19.7871 24.375 20.625 23.5371 20.625 22.5V18.75C20.625 17.7129 19.7871 16.875 18.75 16.875H11.25Z" fill="white"/>
</g>
<defs>
<clipPath id="clip0_66_52">
<rect width="30" height="30" fill="white"/>
</clipPath>
</defs>
</svg>
