<svg width="20" height="20" viewBox="0 0 20 20" fill="none" xmlns="http://www.w3.org/2000/svg">
<g clip-path="url(#clip0_2524_295)">
<g clip-path="url(#clip1_2524_295)">
<path d="M6.98047 15.5234C6.98047 15.6016 6.89062 15.6641 6.77734 15.6641C6.64844 15.6758 6.55859 15.6133 6.55859 15.5234C6.55859 15.4453 6.64844 15.3828 6.76172 15.3828C6.87891 15.3711 6.98047 15.4336 6.98047 15.5234ZM5.76562 15.3477C5.73828 15.4258 5.81641 15.5156 5.93359 15.5391C6.03516 15.5781 6.15234 15.5391 6.17578 15.4609C6.19922 15.3828 6.125 15.293 6.00781 15.2578C5.90625 15.2305 5.79297 15.2695 5.76562 15.3477ZM7.49219 15.2812C7.37891 15.3086 7.30078 15.3828 7.3125 15.4727C7.32422 15.5508 7.42578 15.6016 7.54297 15.5742C7.65625 15.5469 7.73438 15.4727 7.72266 15.3945C7.71094 15.3203 7.60547 15.2695 7.49219 15.2812ZM10.0625 0.3125C4.64453 0.3125 0.5 4.42578 0.5 9.84375C0.5 14.1758 3.22656 17.8828 7.12109 19.1875C7.62109 19.2773 7.79688 18.9688 7.79688 18.7148C7.79688 18.4727 7.78516 17.1367 7.78516 16.3164C7.78516 16.3164 5.05078 16.9023 4.47656 15.1523C4.47656 15.1523 4.03125 14.0156 3.39062 13.7227C3.39062 13.7227 2.49609 13.1094 3.45312 13.1211C3.45312 13.1211 4.42578 13.1992 4.96094 14.1289C5.81641 15.6367 7.25 15.2031 7.80859 14.9453C7.89844 14.3203 8.15234 13.8867 8.43359 13.6289C6.25 13.3867 4.04688 13.0703 4.04688 9.3125C4.04688 8.23828 4.34375 7.69922 4.96875 7.01172C4.86719 6.75781 4.53516 5.71094 5.07031 4.35938C5.88672 4.10547 7.76562 5.41406 7.76562 5.41406C8.54688 5.19531 9.38672 5.08203 10.2188 5.08203C11.0508 5.08203 11.8906 5.19531 12.6719 5.41406C12.6719 5.41406 14.5508 4.10156 15.3672 4.35938C15.9023 5.71484 15.5703 6.75781 15.4688 7.01172C16.0938 7.70312 16.4766 8.24219 16.4766 9.3125C16.4766 13.082 14.1758 13.3828 11.9922 13.6289C12.3516 13.9375 12.6562 14.5234 12.6562 15.4414C12.6562 16.7578 12.6445 18.3867 12.6445 18.707C12.6445 18.9609 12.8242 19.2695 13.3203 19.1797C17.2266 17.8828 19.875 14.1758 19.875 9.84375C19.875 4.42578 15.4805 0.3125 10.0625 0.3125ZM4.29688 13.7852C4.24609 13.8242 4.25781 13.9141 4.32422 13.9883C4.38672 14.0508 4.47656 14.0781 4.52734 14.0273C4.57812 13.9883 4.56641 13.8984 4.5 13.8242C4.4375 13.7617 4.34766 13.7344 4.29688 13.7852ZM3.875 13.4688C3.84766 13.5195 3.88672 13.582 3.96484 13.6211C4.02734 13.6602 4.10547 13.6484 4.13281 13.5938C4.16016 13.543 4.12109 13.4805 4.04297 13.4414C3.96484 13.418 3.90234 13.4297 3.875 13.4688ZM5.14062 14.8594C5.07812 14.9102 5.10156 15.0273 5.19141 15.1016C5.28125 15.1914 5.39453 15.2031 5.44531 15.1406C5.49609 15.0898 5.47266 14.9727 5.39453 14.8984C5.30859 14.8086 5.19141 14.7969 5.14062 14.8594ZM4.69531 14.2852C4.63281 14.3242 4.63281 14.4258 4.69531 14.5156C4.75781 14.6055 4.86328 14.6445 4.91406 14.6055C4.97656 14.5547 4.97656 14.4531 4.91406 14.3633C4.85938 14.2734 4.75781 14.2344 4.69531 14.2852Z" fill="#FFD700"/>
</g>
</g>
<defs>
<clipPath id="clip0_2524_295">
<rect width="19.375" height="20" fill="white" transform="translate(0.5)"/>
</clipPath>
<clipPath id="clip1_2524_295">
<path d="M0.5 0H19.875V20H0.5V0Z" fill="white"/>
</clipPath>
</defs>
</svg>
