<svg width="16" height="16" viewBox="0 0 16 16" fill="none" xmlns="http://www.w3.org/2000/svg">
<path d="M8.0769 6.54492V9.64311H12.2506C12.0673 10.6395 11.5173 11.4831 10.6925 12.0504L13.2094 14.065C14.6758 12.6686 15.5218 10.6177 15.5218 8.18136C15.5218 7.6141 15.4725 7.0686 15.3808 6.54501L8.0769 6.54492Z" fill="#4285F4"/>
<path d="M3.73079 9.52246L3.16314 9.97071L1.15381 11.5852C2.42989 14.1961 5.0453 15.9998 8.07685 15.9998C10.1707 15.9998 11.9262 15.287 13.2093 14.0653L10.6924 12.0507C10.0015 12.5307 9.12023 12.8216 8.07685 12.8216C6.06051 12.8216 4.34737 11.418 3.73397 9.52708L3.73079 9.52246Z" fill="#34A853"/>
<path d="M1.15376 4.41406C0.625025 5.49038 0.321899 6.70494 0.321899 7.99947C0.321899 9.29399 0.625025 10.5086 1.15376 11.5849C1.15376 11.5921 3.73416 9.51942 3.73416 9.51942C3.57906 9.03942 3.48738 8.53036 3.48738 7.99939C3.48738 7.46841 3.57906 6.95935 3.73416 6.47935L1.15376 4.41406Z" fill="#FBBC05"/>
<path d="M8.07695 3.18545C9.21909 3.18545 10.2343 3.59271 11.0451 4.37818L13.2658 2.0873C11.9193 0.792777 10.1709 0 8.07695 0C5.0454 0 2.42982 1.79636 1.15375 4.41455L3.73407 6.48001C4.3474 4.58908 6.06061 3.18545 8.07695 3.18545Z" fill="#EA4335"/>
</svg>
