<svg width="17" height="16" viewBox="0 0 17 16" fill="none" xmlns="http://www.w3.org/2000/svg">
<g clip-path="url(#clip0_2311_431)">
<g clip-path="url(#clip1_2311_431)">
<path d="M9.32812 1C9.32812 0.446875 8.88125 0 8.32812 0C7.775 0 7.32812 0.446875 7.32812 1V8.58438L5.03438 6.29063C4.64375 5.9 4.00938 5.9 3.61875 6.29063C3.22813 6.68125 3.22813 7.31563 3.61875 7.70625L7.61875 11.7063C8.00938 12.0969 8.64375 12.0969 9.03438 11.7063L13.0344 7.70625C13.425 7.31563 13.425 6.68125 13.0344 6.29063C12.6438 5.9 12.0094 5.9 11.6187 6.29063L9.32812 8.58438V1ZM2.32812 11C1.225 11 0.328125 11.8969 0.328125 13V14C0.328125 15.1031 1.225 16 2.32812 16H14.3281C15.4312 16 16.3281 15.1031 16.3281 14V13C16.3281 11.8969 15.4312 11 14.3281 11H11.1562L9.74063 12.4156C8.95938 13.1969 7.69375 13.1969 6.9125 12.4156L5.5 11H2.32812ZM13.8281 12.75C14.027 12.75 14.2178 12.829 14.3585 12.9697C14.4991 13.1103 14.5781 13.3011 14.5781 13.5C14.5781 13.6989 14.4991 13.8897 14.3585 14.0303C14.2178 14.171 14.027 14.25 13.8281 14.25C13.6292 14.25 13.4384 14.171 13.2978 14.0303C13.1571 13.8897 13.0781 13.6989 13.0781 13.5C13.0781 13.3011 13.1571 13.1103 13.2978 12.9697C13.4384 12.829 13.6292 12.75 13.8281 12.75Z" fill="black"/>
</g>
</g>
<defs>
<clipPath id="clip0_2311_431">
<rect width="16" height="16" fill="white" transform="translate(0.328125)"/>
</clipPath>
<clipPath id="clip1_2311_431">
<path d="M0.328125 0H16.3281V16H0.328125V0Z" fill="white"/>
</clipPath>
</defs>
</svg>
