<svg width="39" height="31" viewBox="0 0 39 31" fill="none" xmlns="http://www.w3.org/2000/svg">
<g clip-path="url(#clip0_66_40)">
<path d="M19.4219 0.75C20.459 0.75 21.2969 1.58789 21.2969 2.625V6.375H28.3281C30.6602 6.375 32.5469 8.26172 32.5469 10.5938V26.5312C32.5469 28.8633 30.6602 30.75 28.3281 30.75H10.5156C8.18359 30.75 6.29688 28.8633 6.29688 26.5312V10.5938C6.29688 8.26172 8.18359 6.375 10.5156 6.375H17.5469V2.625C17.5469 1.58789 18.3848 0.75 19.4219 0.75ZM12.8594 23.25C12.3438 23.25 11.9219 23.6719 11.9219 24.1875C11.9219 24.7031 12.3438 25.125 12.8594 25.125H14.7344C15.25 25.125 15.6719 24.7031 15.6719 24.1875C15.6719 23.6719 15.25 23.25 14.7344 23.25H12.8594ZM18.4844 23.25C17.9688 23.25 17.5469 23.6719 17.5469 24.1875C17.5469 24.7031 17.9688 25.125 18.4844 25.125H20.3594C20.875 25.125 21.2969 24.7031 21.2969 24.1875C21.2969 23.6719 20.875 23.25 20.3594 23.25H18.4844ZM24.1094 23.25C23.5938 23.25 23.1719 23.6719 23.1719 24.1875C23.1719 24.7031 23.5938 25.125 24.1094 25.125H25.9844C26.5 25.125 26.9219 24.7031 26.9219 24.1875C26.9219 23.6719 26.5 23.25 25.9844 23.25H24.1094ZM16.1406 15.75C16.1406 15.1284 15.8937 14.5323 15.4542 14.0927C15.0146 13.6532 14.4185 13.4062 13.7969 13.4062C13.1753 13.4062 12.5791 13.6532 12.1396 14.0927C11.7001 14.5323 11.4531 15.1284 11.4531 15.75C11.4531 16.3716 11.7001 16.9677 12.1396 17.4073C12.5791 17.8468 13.1753 18.0938 13.7969 18.0938C14.4185 18.0938 15.0146 17.8468 15.4542 17.4073C15.8937 16.9677 16.1406 16.3716 16.1406 15.75ZM25.0469 18.0938C25.6685 18.0938 26.2646 17.8468 26.7042 17.4073C27.1437 16.9677 27.3906 16.3716 27.3906 15.75C27.3906 15.1284 27.1437 14.5323 26.7042 14.0927C26.2646 13.6532 25.6685 13.4062 25.0469 13.4062C24.4253 13.4062 23.8291 13.6532 23.3896 14.0927C22.9501 14.5323 22.7031 15.1284 22.7031 15.75C22.7031 16.3716 22.9501 16.9677 23.3896 17.4073C23.8291 17.8468 24.4253 18.0938 25.0469 18.0938ZM3.48438 13.875H4.42188V25.125H3.48438C1.93164 25.125 0.671875 23.8652 0.671875 22.3125V16.6875C0.671875 15.1348 1.93164 13.875 3.48438 13.875ZM35.3594 13.875C36.9121 13.875 38.1719 15.1348 38.1719 16.6875V22.3125C38.1719 23.8652 36.9121 25.125 35.3594 25.125H34.4219V13.875H35.3594Z" fill="#D9B753"/>
</g>
<defs>
<clipPath id="clip0_66_40">
<path d="M0.671875 0.75H38.1719V30.75H0.671875V0.75Z" fill="white"/>
</clipPath>
</defs>
</svg>
