<svg width="36" height="28" viewBox="0 0 36 28" fill="none" xmlns="http://www.w3.org/2000/svg">
<path d="M32.9282 14.4642C36.2388 11.1536 36.2388 5.7923 32.9282 2.48175C29.9985 -0.447939 25.3813 -0.828798 22.0122 1.5794L21.9185 1.64386C21.0747 2.24737 20.8813 3.41925 21.4849 4.25714C22.0884 5.09503 23.2603 5.29425 24.0981 4.69073L24.1919 4.62628C26.0728 3.28448 28.645 3.49542 30.2739 5.13019C32.1196 6.97589 32.1196 9.96417 30.2739 11.8099L23.6997 18.3958C21.854 20.2415 18.8657 20.2415 17.02 18.3958C15.3853 16.761 15.1743 14.1888 16.5161 12.3138L16.5806 12.22C17.1841 11.3763 16.9849 10.2044 16.147 9.60675C15.3091 9.00909 14.1313 9.20245 13.5337 10.0403L13.4692 10.1341C11.0552 13.4974 11.436 18.1146 14.3657 21.0442C17.6763 24.3548 23.0376 24.3548 26.3481 21.0442L32.9282 14.4642ZM2.48291 13.0931C-0.827637 16.4036 -0.827637 21.765 2.48291 25.0755C5.4126 28.0052 10.0298 28.386 13.3989 25.9778L13.4927 25.9134C14.3364 25.3099 14.5298 24.138 13.9263 23.3001C13.3228 22.4622 12.1509 22.263 11.313 22.8665L11.2192 22.931C9.33838 24.2728 6.76611 24.0618 5.13721 22.4271C3.2915 20.5755 3.2915 17.5872 5.13721 15.7415L11.7114 9.16144C13.5571 7.31573 16.5454 7.31573 18.3911 9.16144C20.0259 10.7962 20.2368 13.3685 18.895 15.2493L18.8306 15.3431C18.2271 16.1868 18.4263 17.3587 19.2642 17.9564C20.1021 18.554 21.2798 18.3607 21.8774 17.5228L21.9419 17.429C24.356 14.0599 23.9751 9.44269 21.0454 6.513C17.7349 3.20245 12.3735 3.20245 9.06299 6.513L2.48291 13.0931Z" fill="#FFD700"/>
</svg>
