<svg width="21" height="24" viewBox="0 0 21 24" fill="none" xmlns="http://www.w3.org/2000/svg">
<g clip-path="url(#clip0_3_3617)">
<g clip-path="url(#clip1_3_3617)">
<path d="M10.5047 6.60977C7.52341 6.60977 5.11873 9.01445 5.11873 11.9957C5.11873 14.977 7.52341 17.3816 10.5047 17.3816C13.4859 17.3816 15.8906 14.977 15.8906 11.9957C15.8906 9.01445 13.4859 6.60977 10.5047 6.60977ZM10.5047 15.4973C8.5781 15.4973 7.0031 13.927 7.0031 11.9957C7.0031 10.0645 8.57341 8.49414 10.5047 8.49414C12.4359 8.49414 14.0062 10.0645 14.0062 11.9957C14.0062 13.927 12.4312 15.4973 10.5047 15.4973ZM17.3672 6.38945C17.3672 7.08789 16.8047 7.6457 16.1109 7.6457C15.4125 7.6457 14.8547 7.0832 14.8547 6.38945C14.8547 5.6957 15.4172 5.1332 16.1109 5.1332C16.8047 5.1332 17.3672 5.6957 17.3672 6.38945ZM20.9344 7.66445C20.8547 5.98164 20.4703 4.49102 19.2375 3.26289C18.0094 2.03477 16.5187 1.65039 14.8359 1.56602C13.1015 1.46758 7.9031 1.46758 6.16873 1.56602C4.4906 1.6457 2.99998 2.03008 1.76716 3.2582C0.534351 4.48633 0.154663 5.97695 0.0702881 7.65977C-0.0281494 9.39414 -0.0281494 14.5926 0.0702881 16.327C0.149976 18.0098 0.534351 19.5004 1.76716 20.7285C2.99998 21.9566 4.48591 22.341 6.16873 22.4254C7.9031 22.5238 13.1015 22.5238 14.8359 22.4254C16.5187 22.3457 18.0094 21.9613 19.2375 20.7285C20.4656 19.5004 20.85 18.0098 20.9344 16.327C21.0328 14.5926 21.0328 9.39883 20.9344 7.66445ZM18.6937 18.1879C18.3281 19.1066 17.6203 19.8145 16.6969 20.1848C15.314 20.7332 12.0328 20.6066 10.5047 20.6066C8.97654 20.6066 5.6906 20.7285 4.31248 20.1848C3.39373 19.8191 2.68591 19.1113 2.3156 18.1879C1.76716 16.8051 1.89373 13.5238 1.89373 11.9957C1.89373 10.4676 1.77185 7.18164 2.3156 5.80352C2.68123 4.88477 3.38904 4.17695 4.31248 3.80664C5.69529 3.2582 8.97654 3.38477 10.5047 3.38477C12.0328 3.38477 15.3187 3.26289 16.6969 3.80664C17.6156 4.17227 18.3234 4.88008 18.6937 5.80352C19.2422 7.18633 19.1156 10.4676 19.1156 11.9957C19.1156 13.5238 19.2422 16.8098 18.6937 18.1879Z" fill="white"/>
</g>
</g>
<defs>
<clipPath id="clip0_3_3617">
<rect width="21" height="24" fill="white"/>
</clipPath>
<clipPath id="clip1_3_3617">
<path d="M0 0H21V24H0V0Z" fill="white"/>
</clipPath>
</defs>
</svg>
