<svg width="19" height="16" viewBox="0 0 19 16" fill="none" xmlns="http://www.w3.org/2000/svg">
<g clip-path="url(#clip0_103_155)">
<path d="M7.5375 1.33438L6.35938 1.775C6.26562 1.80937 6.20312 1.9 6.20312 2C6.20312 2.1 6.26562 2.19062 6.35938 2.225L7.5375 2.66563L7.97813 3.84375C8.0125 3.9375 8.10313 4 8.20312 4C8.30313 4 8.39375 3.9375 8.42813 3.84375L8.86875 2.66563L10.0469 2.225C10.1406 2.19062 10.2031 2.1 10.2031 2C10.2031 1.9 10.1406 1.80937 10.0469 1.775L8.86875 1.33438L8.42813 0.15625C8.39375 0.0625 8.30313 0 8.20312 0C8.10313 0 8.0125 0.0625 7.97813 0.15625L7.5375 1.33438ZM1.64375 12.3562C1.05937 12.9406 1.05937 13.8906 1.64375 14.4781L2.725 15.5594C3.30937 16.1437 4.25938 16.1437 4.84688 15.5594L16.7625 3.64062C17.3469 3.05625 17.3469 2.10625 16.7625 1.51875L15.6812 0.440625C15.0969 -0.14375 14.1469 -0.14375 13.5594 0.440625L1.64375 12.3562ZM15.3469 2.58125L12.0656 5.8625L11.3375 5.13438L14.6187 1.85312L15.3469 2.58125ZM0.4375 3.6625C0.296875 3.71562 0.203125 3.85 0.203125 4C0.203125 4.15 0.296875 4.28438 0.4375 4.3375L2.20312 5L2.86562 6.76562C2.91875 6.90625 3.05312 7 3.20312 7C3.35313 7 3.4875 6.90625 3.54063 6.76562L4.20312 5L5.96875 4.3375C6.10938 4.28438 6.20312 4.15 6.20312 4C6.20312 3.85 6.10938 3.71562 5.96875 3.6625L4.20312 3L3.54063 1.23438C3.4875 1.09375 3.35313 1 3.20312 1C3.05312 1 2.91875 1.09375 2.86562 1.23438L2.20312 3L0.4375 3.6625ZM11.4375 11.6625C11.2969 11.7156 11.2031 11.85 11.2031 12C11.2031 12.15 11.2969 12.2844 11.4375 12.3375L13.2031 13L13.8656 14.7656C13.9188 14.9062 14.0531 15 14.2031 15C14.3531 15 14.4875 14.9062 14.5406 14.7656L15.2031 13L16.9688 12.3375C17.1094 12.2844 17.2031 12.15 17.2031 12C17.2031 11.85 17.1094 11.7156 16.9688 11.6625L15.2031 11L14.5406 9.23438C14.4875 9.09375 14.3531 9 14.2031 9C14.0531 9 13.9188 9.09375 13.8656 9.23438L13.2031 11L11.4375 11.6625Z" fill="#0D0D0D"/>
</g>
<defs>
<clipPath id="clip0_103_155">
<path d="M0.203125 0H18.2031V16H0.203125V0Z" fill="white"/>
</clipPath>
</defs>
</svg>
