<svg width="13" height="16" viewBox="0 0 13 16" fill="none" xmlns="http://www.w3.org/2000/svg">
<g clip-path="url(#clip0_208_867)">
<path d="M10.0375 8.39688C10.0312 7.25 10.55 6.38437 11.6 5.74687C11.0125 4.90625 10.125 4.44375 8.95312 4.35313C7.84375 4.26562 6.63125 5 6.1875 5C5.71875 5 4.64375 4.38438 3.8 4.38438C2.05625 4.4125 0.203125 5.775 0.203125 8.54688C0.203125 9.36563 0.353125 10.2115 0.653125 11.0844C1.05313 12.2313 2.49687 15.0437 4.00312 14.9969C4.79063 14.9781 5.34687 14.4375 6.37187 14.4375C7.36562 14.4375 7.88125 14.9969 8.75937 14.9969C10.2781 14.975 11.5844 12.4187 11.9656 11.2688C9.92813 10.3094 10.0375 8.45625 10.0375 8.39688ZM8.26875 3.26562C9.12187 2.25312 9.04375 1.33125 9.01875 1C8.26562 1.04375 7.39375 1.5125 6.89687 2.09063C6.35 2.70938 6.02813 3.475 6.09688 4.3375C6.9125 4.4 7.65625 3.98125 8.26875 3.26562Z" fill="white"/>
</g>
<defs>
<clipPath id="clip0_208_867">
<path d="M0.078125 0H12.0781V16H0.078125V0Z" fill="white"/>
</clipPath>
</defs>
</svg>
