<svg width="38" height="30" viewBox="0 0 38 30" fill="none" xmlns="http://www.w3.org/2000/svg">
<path d="M37.5 30H0V0H37.5V30Z" stroke="#1F2228"/>
<path d="M33.9727 15.6856C37.2832 12.3751 37.2832 7.01373 33.9727 3.70318C31.043 0.773497 26.4258 0.392637 23.0566 2.80084L22.9629 2.86529C22.1191 3.46881 21.9258 4.64068 22.5293 5.47857C23.1328 6.31647 24.3047 6.51568 25.1426 5.91217L25.2363 5.84772C27.1172 4.50592 29.6895 4.71686 31.3184 6.35162C33.1641 8.19732 33.1641 11.1856 31.3184 13.0313L24.7441 19.6172C22.8984 21.4629 19.9102 21.4629 18.0645 19.6172C16.4297 17.9825 16.2188 15.4102 17.5605 13.5352L17.625 13.4415C18.2285 12.5977 18.0293 11.4258 17.1914 10.8282C16.3535 10.2305 15.1758 10.4239 14.5781 11.2618L14.5137 11.3555C12.0996 14.7188 12.4805 19.336 15.4102 22.2657C18.7207 25.5762 24.082 25.5762 27.3926 22.2657L33.9727 15.6856ZM3.52734 14.3145C0.216797 17.6251 0.216797 22.9864 3.52734 26.2969C6.45703 29.2266 11.0742 29.6075 14.4434 27.1993L14.5371 27.1348C15.3809 26.5313 15.5742 25.3594 14.9707 24.5215C14.3672 23.6837 13.1953 23.4844 12.3574 24.0879L12.2637 24.1524C10.3828 25.4942 7.81055 25.2833 6.18164 23.6485C4.33594 21.7969 4.33594 18.8087 6.18164 16.9629L12.7559 10.3829C14.6016 8.53717 17.5898 8.53717 19.4355 10.3829C21.0703 12.0176 21.2812 14.5899 19.9395 16.4708L19.875 16.5645C19.2715 17.4083 19.4707 18.5801 20.3086 19.1778C21.1465 19.7754 22.3242 19.5821 22.9219 18.7442L22.9863 18.6504C25.4004 15.2813 25.0195 10.6641 22.0898 7.73443C18.7793 4.42389 13.418 4.42389 10.1074 7.73443L3.52734 14.3145Z" fill="white"/>
</svg>
