<svg width="34" height="36" viewBox="0 0 34 36" fill="none" xmlns="http://www.w3.org/2000/svg">
<path d="M33.75 36H0V0H33.75V36Z" stroke="#1F2228"/>
<g clip-path="url(#clip0_66_30)">
<path d="M13.752 5.25195L11.543 6.07812C11.3672 6.14258 11.25 6.3125 11.25 6.5C11.25 6.6875 11.3672 6.85742 11.543 6.92188L13.752 7.74805L14.5781 9.95703C14.6426 10.1328 14.8125 10.25 15 10.25C15.1875 10.25 15.3574 10.1328 15.4219 9.95703L16.248 7.74805L18.457 6.92188C18.6328 6.85742 18.75 6.6875 18.75 6.5C18.75 6.3125 18.6328 6.14258 18.457 6.07812L16.248 5.25195L15.4219 3.04297C15.3574 2.86719 15.1875 2.75 15 2.75C14.8125 2.75 14.6426 2.86719 14.5781 3.04297L13.752 5.25195ZM2.70117 25.918C1.60547 27.0137 1.60547 28.7949 2.70117 29.8965L4.72852 31.9238C5.82422 33.0195 7.60547 33.0195 8.70703 31.9238L31.0488 9.57617C32.1445 8.48047 32.1445 6.69922 31.0488 5.59766L29.0215 3.57617C27.9258 2.48047 26.1445 2.48047 25.043 3.57617L2.70117 25.918ZM28.3945 7.58984L22.2422 13.7422L20.877 12.377L27.0293 6.22461L28.3945 7.58984ZM0.439453 9.61719C0.175781 9.7168 0 9.96875 0 10.25C0 10.5312 0.175781 10.7832 0.439453 10.8828L3.75 12.125L4.99219 15.4355C5.0918 15.6992 5.34375 15.875 5.625 15.875C5.90625 15.875 6.1582 15.6992 6.25781 15.4355L7.5 12.125L10.8105 10.8828C11.0742 10.7832 11.25 10.5312 11.25 10.25C11.25 9.96875 11.0742 9.7168 10.8105 9.61719L7.5 8.375L6.25781 5.06445C6.1582 4.80078 5.90625 4.625 5.625 4.625C5.34375 4.625 5.0918 4.80078 4.99219 5.06445L3.75 8.375L0.439453 9.61719ZM21.0645 24.6172C20.8008 24.7168 20.625 24.9688 20.625 25.25C20.625 25.5312 20.8008 25.7832 21.0645 25.8828L24.375 27.125L25.6172 30.4355C25.7168 30.6992 25.9688 30.875 26.25 30.875C26.5312 30.875 26.7832 30.6992 26.8828 30.4355L28.125 27.125L31.4355 25.8828C31.6992 25.7832 31.875 25.5312 31.875 25.25C31.875 24.9688 31.6992 24.7168 31.4355 24.6172L28.125 23.375L26.8828 20.0645C26.7832 19.8008 26.5312 19.625 26.25 19.625C25.9688 19.625 25.7168 19.8008 25.6172 20.0645L24.375 23.375L21.0645 24.6172Z" fill="#D9B753"/>
</g>
<defs>
<clipPath id="clip0_66_30">
<path d="M0 2.75H33.75V32.75H0V2.75Z" fill="white"/>
</clipPath>
</defs>
</svg>
