<svg width="34" height="31" viewBox="0 0 34 31" fill="none" xmlns="http://www.w3.org/2000/svg">
<g clip-path="url(#clip0_66_22)">
<path d="M0 8.25C0 6.18164 1.68164 4.5 3.75 4.5H18.75C20.8184 4.5 22.5 6.18164 22.5 8.25V23.25C22.5 25.3184 20.8184 27 18.75 27H3.75C1.68164 27 0 25.3184 0 23.25V8.25ZM32.7598 6.59766C33.3691 6.92578 33.75 7.55859 33.75 8.25V23.25C33.75 23.9414 33.3691 24.5742 32.7598 24.9023C32.1504 25.2305 31.4121 25.1953 30.832 24.8086L25.207 21.0586L24.375 20.502V19.5V12V10.998L25.207 10.4414L30.832 6.69141C31.4062 6.31055 32.1445 6.26953 32.7598 6.59766Z" fill="#D9B753"/>
</g>
<defs>
<clipPath id="clip0_66_22">
<path d="M0 0.75H33.75V30.75H0V0.75Z" fill="white"/>
</clipPath>
</defs>
</svg>
